<svg xmlns="http://www.w3.org/2000/svg" width="830.55" height="497.8" viewBox="0 0 830.55 497.8"><path d="M596.7,724.9l-.09-33.59L580.37,719h-5.76l-16.16-27V724.9h-12V669H557l20.67,34.8L598,669h10.49l.16,56Z" transform="translate(-546.45 -228.46)" fill="#fff"/><path d="M689.65,712.9H664l-4.88,12H646L670.68,669h12.61l24.69,56H694.57Zm-4-9.84-8.75-21.44-8.75,21.44Z" transform="translate(-546.45 -228.46)" fill="#fff"/><path d="M745.22,669H770.3c18.06,0,30.44,11,30.44,28s-12.38,28-30.44,28H745.22Zm24.44,45.36a17.37,17.37,0,1,0,1.64-34.71,15,15,0,0,0-1.64,0H758v34.71Z" transform="translate(-546.45 -228.46)" fill="#fff"/><path d="M889.13,724.9,889,699.39l-12,20.48h-8.21l-12-19.6V724.9H839.84V669h15.31l18,29.87L890.64,669H906l.16,56Z" transform="translate(-546.45 -228.46)" fill="#fff"/><path d="M992.5,710.67V724.9H946.56V669h44.86v14.24H964.85v6.56h23.34v13.59H964.85v7.36Z" transform="translate(-546.45 -228.46)" fill="#fff"/><path d="M1031.18,669h18.62V710.3h24.91v14.64h-43.52Z" transform="translate(-546.45 -228.46)" fill="#fff"/><path d="M1111.36,669H1130V710.3h24.92v14.64h-43.52Z" transform="translate(-546.45 -228.46)" fill="#fff"/><path d="M1188.55,696.92a31.21,31.21,0,1,1,33.09,29.21c-.65,0-1.29.06-1.94.06a29.3,29.3,0,0,1-31.09-27.39C1188.57,698.18,1188.55,697.55,1188.55,696.92Zm43.53-3.37a12.47,12.47,0,1,0-12.38,14,12.67,12.67,0,0,0,12.45-12.88C1232.14,694.3,1232.12,693.92,1232.08,693.55Z" transform="translate(-546.45 -228.46)" fill="#fff"/><path d="M1377,669l-17.67,56h-19.94L1330.47,695l-9.38,29.91h-19.95l-17.66-56h19.14l9.63,31.84L1322.42,669h17.1l9.63,32.24L1359.32,669Z" transform="translate(-546.45 -228.46)" fill="#fff"/><path d="M1076.14,228.46h0a171.19,171.19,0,0,0-59.06,10.42,173.82,173.82,0,0,0-55.31,32.84,173.93,173.93,0,0,0-55.31-32.84,171.41,171.41,0,0,0-59.1-10.42,8.81,8.81,0,0,0-8.71,8.85V405.5a8.81,8.81,0,0,0,8.74,8.86h228.75a8.82,8.82,0,0,0,8.74-8.86V237.31A8.82,8.82,0,0,0,1076.14,228.46Zm-8.77,18V396.63h-45.68a178.24,178.24,0,0,0-47.23-112.5,156.23,156.23,0,0,1,92.91-37.71Zm-63.13,150.22h-85a160.1,160.1,0,0,1,42.47-100.23A160.06,160.06,0,0,1,1004.24,396.64ZM949,284.14a178.3,178.3,0,0,0-47.23,112.5H856.13V246.42A156.22,156.22,0,0,1,949,284.13Z" transform="translate(-546.45 -228.46)" fill="#fff"/><path d="M1076.11,425H847.36a8.81,8.81,0,0,0-8.74,8.86V602.09a8.83,8.83,0,0,0,8.74,8.86,171.26,171.26,0,0,0,59.06-10.45,173.9,173.9,0,0,0,55.31-32.83,173.73,173.73,0,0,0,55.32,32.83,171.13,171.13,0,0,0,59.09,10.43,8.82,8.82,0,0,0,8.71-8.87V433.9A8.81,8.81,0,0,0,1076.11,425Zm-8.74,17.72V593a156.23,156.23,0,0,1-92.91-37.71,178.24,178.24,0,0,0,47.23-112.5Zm-63.17,0A160,160,0,0,1,961.74,543a160,160,0,0,1-42.5-100.23ZM949,555.26A156.18,156.18,0,0,1,856.1,593V442.76h45.68A178.22,178.22,0,0,0,949,555.25Z" transform="translate(-546.45 -228.46)" fill="#fff"/></svg>