<?xml version="1.0" encoding="utf-8"?>
<!-- Generator: Adobe Illustrator 25.0.0, SVG Export Plug-In . SVG Version: 6.00 Build 0)  -->
<svg version="1.1" xmlns="http://www.w3.org/2000/svg" xmlns:xlink="http://www.w3.org/1999/xlink" x="0px" y="0px"
	 viewBox="0 0 1024 1024" style="enable-background:new 0 0 1024 1024;" xml:space="preserve">
<style type="text/css">
	.st0{display:none;}
	.st1{display:inline;fill:#1D1D1B;}
	.st2{font-family:'Montserrat-Regular';}
	.st3{font-size:72.6575px;}
</style>
<g id="Calque_1">
	<g>
		<path d="M91.21,763.1c0-3.13,2.47-5.45,5.45-5.45c2.91,0,5.45,2.33,5.45,5.45c0,3.2-2.54,5.6-5.45,5.6
			C93.68,768.7,91.21,766.3,91.21,763.1z"/>
		<path d="M122.32,763.9c0-11.41,8.29-19.41,19.7-19.41c6.47,0,11.92,2.54,14.98,7.56l-3.85,2.62c-2.62-3.85-6.69-5.67-11.12-5.67
			c-8.36,0-14.47,5.96-14.47,14.9c0,9.01,6.11,14.9,14.47,14.9c4.43,0,8.51-1.75,11.12-5.6l3.85,2.62
			c-3.05,4.94-8.51,7.56-14.98,7.56C130.61,783.38,122.32,775.32,122.32,763.9z"/>
		<path d="M173.49,763.9c0-11.34,8.29-19.41,19.48-19.41s19.41,8.07,19.41,19.41s-8.21,19.48-19.41,19.48
			S173.49,775.24,173.49,763.9z M207.15,763.9c0-8.94-6.03-14.9-14.17-14.9s-14.25,5.96-14.25,14.9s6.11,14.9,14.25,14.9
			S207.15,772.84,207.15,763.9z"/>
		<path d="M269.01,760.85v22.17h-5.16v-21.66c0-8.07-4.22-12.21-11.49-12.21c-8.21,0-13.38,5.09-13.38,13.81v20.06h-5.16v-38.24
			h4.94v7.05c2.76-4.65,7.92-7.34,14.54-7.34C262.61,744.49,269.01,749.87,269.01,760.85z"/>
		<path d="M314.08,780.7c-2.04,1.82-5.09,2.69-8.07,2.69c-7.2,0-11.19-4.07-11.19-11.12v-23.12h-6.83v-4.36h6.83v-8.36h5.16v8.36
			h11.63v4.36h-11.63v22.83c0,4.51,2.33,6.98,6.62,6.98c2.11,0,4.22-0.65,5.67-1.96L314.08,780.7z"/>
		<path d="M353.62,744.49v5.02c-0.44,0-0.87-0.07-1.24-0.07c-8,0-12.87,5.09-12.87,14.1v19.48h-5.16v-38.24h4.94v7.49
			C341.7,747.18,346.57,744.49,353.62,744.49z"/>
		<path d="M402.61,759.32v23.7h-4.94v-5.96c-2.33,3.93-6.83,6.32-13.16,6.32c-8.65,0-13.96-4.51-13.96-11.12
			c0-5.89,3.78-10.83,14.76-10.83h12.14v-2.33c0-6.54-3.71-10.1-10.83-10.1c-4.94,0-9.6,1.75-12.72,4.51l-2.33-3.85
			c3.85-3.27,9.52-5.16,15.56-5.16C397.02,744.49,402.61,749.44,402.61,759.32z M397.45,771.54v-6.25h-11.99
			c-7.41,0-9.81,2.91-9.81,6.83c0,4.43,3.56,7.2,9.67,7.2C391.13,779.31,395.42,776.55,397.45,771.54z"/>
		<path d="M423.84,763.9c0-11.41,8.29-19.41,19.7-19.41c6.47,0,11.92,2.54,14.98,7.56l-3.85,2.62c-2.62-3.85-6.69-5.67-11.12-5.67
			c-8.36,0-14.47,5.96-14.47,14.9c0,9.01,6.11,14.9,14.47,14.9c4.43,0,8.51-1.75,11.12-5.6l3.85,2.62
			c-3.05,4.94-8.51,7.56-14.98,7.56C432.12,783.38,423.84,775.32,423.84,763.9z"/>
		<path d="M500.09,780.7c-2.04,1.82-5.09,2.69-8.07,2.69c-7.2,0-11.19-4.07-11.19-11.12v-23.12h-6.83v-4.36h6.83v-8.36h5.16v8.36
			h11.63v4.36h-11.63v22.83c0,4.51,2.33,6.98,6.62,6.98c2.11,0,4.22-0.65,5.67-1.96L500.09,780.7z"/>
		<path d="M589.06,763.9c0,11.63-8.14,19.48-19.04,19.48c-6.11,0-11.34-2.62-14.54-7.56v21.3h-5.16v-52.34h4.94v7.56
			c3.13-5.09,8.43-7.85,14.76-7.85C580.92,744.49,589.06,752.34,589.06,763.9z M583.9,763.9c0-8.87-6.18-14.9-14.25-14.9
			c-8.14,0-14.25,6.03-14.25,14.9c0,8.94,6.11,14.9,14.25,14.9C577.72,778.81,583.9,772.84,583.9,763.9z"/>
		<path d="M629.77,744.49v5.02c-0.44,0-0.87-0.07-1.24-0.07c-8,0-12.87,5.09-12.87,14.1v19.48h-5.16v-38.24h4.94v7.49
			C617.85,747.18,622.72,744.49,629.77,744.49z"/>
		<path d="M645.76,763.9c0-11.34,8.29-19.41,19.48-19.41c11.2,0,19.41,8.07,19.41,19.41s-8.21,19.48-19.41,19.48
			C654.05,783.38,645.76,775.24,645.76,763.9z M679.42,763.9c0-8.94-6.03-14.9-14.18-14.9s-14.25,5.96-14.25,14.9
			s6.11,14.9,14.25,14.9S679.42,772.84,679.42,763.9z"/>
		<path d="M692.35,795.02l1.82-3.92c1.53,1.31,3.56,1.96,5.96,1.96c4.07,0,6.33-2.47,6.33-7.2v-41.07h5.16v41.07
			c0,7.05-3.93,11.63-11.2,11.63C697.37,797.49,694.24,796.69,692.35,795.02z M705.29,732.72c0-1.96,1.67-3.63,3.78-3.63
			c2.11,0,3.78,1.6,3.78,3.56c0,2.11-1.6,3.78-3.78,3.78C706.97,736.43,705.29,734.75,705.29,732.72z"/>
		<path d="M770.21,765.5h-31.99c0.58,8,6.69,13.3,15.05,13.3c4.65,0,8.8-1.67,11.7-5.02l2.91,3.34c-3.42,4.07-8.72,6.25-14.76,6.25
			c-11.92,0-20.06-8.14-20.06-19.48s7.92-19.41,18.68-19.41c10.76,0,18.54,7.92,18.54,19.41
			C770.28,764.34,770.21,764.92,770.21,765.5z M738.22,761.65h27.11c-0.65-7.49-6.11-12.72-13.59-12.72
			C744.33,748.93,738.88,754.16,738.22,761.65z"/>
		<path d="M787.87,763.9c0-11.41,8.29-19.41,19.7-19.41c6.47,0,11.92,2.54,14.97,7.56l-3.85,2.62c-2.62-3.85-6.69-5.67-11.12-5.67
			c-8.36,0-14.47,5.96-14.47,14.9c0,9.01,6.11,14.9,14.47,14.9c4.43,0,8.5-1.75,11.12-5.6l3.85,2.62c-3.05,4.94-8.5,7.56-14.97,7.56
			C796.16,783.38,787.87,775.32,787.87,763.9z"/>
		<path d="M864.12,780.7c-2.04,1.82-5.09,2.69-8.07,2.69c-7.2,0-11.19-4.07-11.19-11.12v-23.12h-6.83v-4.36h6.83v-8.36h5.16v8.36
			h11.63v4.36h-11.63v22.83c0,4.51,2.33,6.98,6.61,6.98c2.11,0,4.22-0.65,5.67-1.96L864.12,780.7z"/>
		<path d="M879.09,778.66l2.33-4.07c3.05,2.4,8.21,4.29,13.59,4.29c7.27,0,10.25-2.47,10.25-6.25c0-9.96-24.79-2.11-24.79-17.23
			c0-6.25,5.38-10.9,15.12-10.9c4.94,0,10.32,1.38,13.52,3.56l-2.25,4.14c-3.34-2.33-7.34-3.27-11.27-3.27
			c-6.91,0-9.96,2.69-9.96,6.32c0,10.32,24.79,2.54,24.79,17.23c0,6.61-5.82,10.9-15.77,10.9
			C888.33,783.38,882.22,781.35,879.09,778.66z"/>
		<path d="M928.96,763.1c0-3.13,2.47-5.45,5.45-5.45c2.91,0,5.45,2.33,5.45,5.45c0,3.2-2.54,5.6-5.45,5.6
			C931.43,768.7,928.96,766.3,928.96,763.1z"/>
	</g>
</g>
<g id="Calque_3" class="st0">
	<text transform="matrix(1 0 0 1 84.2227 782.4033)" class="st1 st2 st3">•individual design•</text>
</g>
<g id="Calque_2">
	<path d="M132.24,698.25v-34.49l-17.12,28.38h-5.95L92.6,664.24v34.01H80v-57.87h10.94l21.4,35.99l21.09-35.99h10.86v57.95
		L132.24,698.25z"/>
	<path d="M228.25,685.89h-26.56l-5.07,12.37h-13.56l25.53-57.87h13.08l25.53,57.95h-13.87L228.25,685.89z M224.04,675.66l-9.04-22.2
		l-9.04,22.2H224.04z"/>
	<path d="M285.8,640.38h25.92c18.71,0,31.71,11.42,31.71,28.94s-12.84,29.02-31.71,29.02H285.8V640.38z M311.09,687.55
		c9.94-0.01,17.99-8.08,17.97-18.02c-0.01-9.28-7.07-17.02-16.31-17.89h-14.03v35.91H311.09z"/>
	<path d="M434.76,698.25v-26.4l-12.6,21.25h-8.48l-12.37-20.29v25.45h-17.6v-57.87h15.86l18.63,31.31l18.15-30.92h15.86v57.95
		L434.76,698.25z"/>
	<path d="M541.78,683.59v14.67h-47.57v-57.87h46.46v14.75h-27.51v6.74h24.18v14.11h-24.18v7.93L541.78,683.59z"/>
	<path d="M581.82,640.38h19.26v42.81h25.84v15.14h-45.11V640.38z"/>
	<path d="M664.82,640.38h19.34v42.81h25.76v15.14H664.9L664.82,640.38z"/>
	<path d="M744.73,669.32c-1.15-17.83,12.37-33.21,30.2-34.36c17.83-1.15,33.21,12.37,34.36,30.2c1.15,17.83-12.37,33.21-30.2,34.36
		c-0.04,0-0.07,0-0.11,0.01H777c-16.53,1.09-30.88-11.31-32.19-27.83C744.73,670.91,744.7,670.11,744.73,669.32z M789.84,666.32
		c-0.88-7.08-7.33-12.11-14.41-11.24c-7.08,0.88-12.11,7.33-11.24,14.41c0.8,6.47,6.29,11.33,12.81,11.34
		c7.31,0,13.24-5.93,13.24-13.24c0-0.03,0-0.05,0-0.08c0-0.4,0-0.79,0-1.19H789.84z"/>
	<path d="M939.83,640.38l-18.31,57.95h-20.29l-9.2-31l-9.75,31h-20.69l-18.31-57.95h19.82l9.99,32.98l10.46-32.98h17.68l9.91,33.38
		l10.54-33.38H939.83z"/>
	<path d="M628.35,184.3L628.35,184.3c-20.85,0-41.53,3.65-61.12,10.78c-21.01,7.71-40.42,19.24-57.24,34.01
		c-16.84-14.79-36.27-26.32-57.32-34.01c-19.59-7.13-40.27-10.78-61.12-10.78c-5.02,0.09-9.04,4.18-9.04,9.2v174.41
		c-0.09,4.99,3.89,9.11,8.88,9.19c0.05,0,0.11,0,0.16,0h236.8c4.99,0,9.04-4.04,9.04-9.04c0-0.05,0-0.11,0-0.16V193.5
		C637.44,188.47,633.39,184.35,628.35,184.3C628.35,184.3,628.35,184.3,628.35,184.3z M619.32,202.93V358.4h-47.57
		c-2.02-43.34-19.26-84.57-48.68-116.46C550,218.71,583.82,205,619.32,202.93z M553.91,358.47h-88c2.15-38.65,17.71-75.35,44-103.77
		C536.26,283.08,551.83,319.8,553.91,358.47z M496.91,241.94c-29.48,31.89-46.78,73.15-48.83,116.54h-47.57V202.93
		C436.07,204.95,469.96,218.66,496.91,241.94z"/>
	<path d="M628.35,387.81h-236.8c-5.03,0.09-9.07,4.17-9.12,9.2v174.41c0,5.04,4.08,9.12,9.12,9.12h0
		c20.85,0.04,41.54-3.61,61.12-10.78c21.03-7.68,40.44-19.21,57.24-34.01c32.72,28.84,74.83,44.76,118.44,44.79
		c5.03-0.04,9.08-4.16,9.04-9.2c0,0,0,0,0,0V396.92C637.35,391.94,633.34,387.89,628.35,387.81z M619.32,406.2v155.54
		c-35.5-2.13-69.31-15.86-96.24-39.08c29.51-31.85,46.83-73.09,48.91-116.46L619.32,406.2z M553.91,406.2
		c-2.08,38.67-17.65,75.39-44,103.77c-26.29-28.42-41.84-65.12-44-103.77H553.91z M496.91,522.66
		c-26.9,23.22-60.69,36.95-96.16,39.08V406.2h47.57C450.35,449.52,467.55,490.74,496.91,522.66z"/>
</g>
</svg>
